<?xml version="1.0" standalone="no"?>
<!DOCTYPE svg PUBLIC "-//W3C//DTD SVG 20010904//EN"
 "http://www.w3.org/TR/2001/REC-SVG-20010904/DTD/svg10.dtd">
<svg version="1.0" xmlns="http://www.w3.org/2000/svg"
 width="1008.000000pt" height="1008.000000pt" viewBox="0 0 1008.000000 1008.000000"
 preserveAspectRatio="xMidYMid meet">
<metadata>
Created by potrace 1.11, written by Peter Selinger 2001-2013
</metadata>
<g transform="translate(0.000000,1008.000000) scale(0.100000,-0.100000)"
fill="#000000" stroke="none">
<path d="M897 9124 c-1 -2 -25 -6 -52 -10 -28 -3 -79 -15 -115 -26 -36 -11
-69 -21 -75 -22 -21 -3 -175 -90 -175 -99 0 -4 -5 -5 -10 -2 -6 3 -13 -1 -16
-9 -3 -9 -10 -16 -15 -16 -23 0 -140 -127 -227 -245 -13 -18 -63 -126 -78
-168 -26 -72 -46 -170 -49 -234 -2 -34 -5 -66 -8 -70 -2 -4 -1 -17 3 -28 4
-11 4 -32 -1 -47 -4 -16 -4 -28 1 -28 5 0 5 -13 0 -28 -4 -16 -4 -36 1 -45 5
-9 5 -18 0 -21 -4 -3 -7 -18 -4 -33 7 -50 8 -113 2 -113 -7 0 -3 -55 5 -69 4
-5 2 -12 -4 -16 -6 -4 -7 -12 -1 -24 5 -9 6 -23 1 -31 -4 -7 -5 -23 0 -35 4
-12 4 -29 -1 -38 -7 -11 -6 -17 0 -17 6 0 8 -9 3 -22 -4 -13 -6 -36 -5 -53 3
-29 3 -40 3 -67 -1 -7 1 -34 2 -61 2 -26 0 -47 -3 -47 -7 0 -3 -55 5 -69 4 -5
2 -12 -4 -16 -6 -4 -7 -12 -1 -24 5 -9 6 -23 1 -31 -4 -7 -5 -23 0 -35 4 -12
4 -29 -1 -38 -7 -11 -6 -17 0 -17 6 0 8 -9 3 -22 -4 -13 -6 -36 -5 -53 3 -29
3 -40 3 -67 -1 -7 1 -34 2 -61 2 -26 0 -47 -3 -47 -7 0 -3 -55 5 -69 4 -5 2
-12 -4 -16 -6 -4 -7 -12 -1 -24 5 -9 6 -23 1 -31 -4 -7 -5 -23 0 -35 4 -12 4
-29 -1 -38 -7 -11 -6 -17 0 -17 6 0 8 -9 3 -22 -4 -13 -6 -36 -5 -53 3 -29 3
-40 3 -67 -1 -7 1 -34 2 -61 2 -26 0 -47 -3 -47 -7 0 -3 -55 5 -69 4 -5 2 -12
-4 -16 -6 -4 -7 -12 -1 -24 5 -9 6 -23 1 -31 -4 -7 -5 -23 0 -35 4 -12 4 -29
-1 -38 -7 -11 -6 -17 0 -17 6 0 8 -9 3 -22 -4 -13 -6 -36 -5 -53 3 -29 3 -40
3 -67 -1 -7 1 -34 2 -61 2 -26 0 -47 -3 -47 -7 0 -3 -55 5 -69 4 -5 2 -12 -4
-16 -6 -4 -7 -12 -1 -24 5 -9 6 -23 1 -31 -4 -7 -5 -23 0 -35 4 -12 4 -29 -1
-38 -7 -11 -6 -17 0 -17 6 0 8 -9 3 -22 -4 -13 -6 -36 -5 -53 3 -29 3 -40 3
-67 -1 -7 1 -34 2 -61 2 -26 0 -47 -3 -47 -7 0 -3 -55 5 -69 4 -5 2 -12 -4
-16 -6 -4 -7 -12 -1 -24 5 -9 6 -23 1 -31 -4 -7 -5 -23 0 -35 4 -12 4 -29 -1
-38 -7 -11 -6 -17 0 -17 6 0 8 -9 3 -22 -4 -13 -6 -36 -5 -53 3 -29 3 -40 3
-67 -1 -7 1 -34 2 -61 2 -26 0 -47 -3 -47 -7 0 -3 -55 5 -69 4 -5 2 -12 -4
-16 -6 -4 -7 -12 -1 -24 5 -9 6 -23 1 -31 -4 -7 -5 -23 0 -35 4 -12 4 -29 -1
-38 -7 -11 -6 -17 0 -17 6 0 8 -9 3 -22 -4 -13 -6 -36 -5 -53 3 -29 3 -40 3
-67 -1 -7 1 -34 2 -61 2 -26 0 -47 -3 -47 -7 0 -3 -55 5 -69 4 -5 2 -12 -4
-16 -6 -4 -7 -12 -1 -24 5 -9 6 -23 1 -31 -4 -7 -5 -23 0 -35 4 -12 4 -29 -1
-38 -7 -11 -6 -17 0 -17 6 0 8 -9 3 -22 -4 -13 -6 -36 -5 -53 3 -29 3 -40 3
-67 -1 -7 1 -34 2 -61 2 -26 0 -47 -3 -47 -7 0 -3 -55 5 -69 4 -5 2 -12 -4
-16 -6 -4 -7 -12 -1 -24 5 -9 6 -23 1 -31 -4 -7 -5 -23 0 -35 4 -12 4 -29 -1
-38 -7 -11 -6 -17 0 -17 6 0 8 -9 3 -22 -4 -13 -6 -36 -5 -53 3 -29 3 -40 3
-67 -1 -7 1 -34 2 -61 2 -26 0 -47 -3 -47 -7 0 -3 -55 5 -69 4 -5 2 -12 -4
-16 -6 -4 -7 -12 -1 -24 5 -9 6 -23 1 -31 -4 -7 -5 -23 0 -35 4 -12 4 -29 -1
-38 -7 -11 -6 -17 0 -17 6 0 8 -9 3 -22 -4 -13 -6 -36 -5 -53 3 -29 3 -40 3
-67 -1 -7 1 -34 2 -61 2 -26 0 -47 -3 -47 -7 0 -3 -55 5 -69 4 -5 2 -12 -4
-16 -6 -4 -7 -12 -1 -24 5 -9 6 -23 1 -31 -4 -7 -5 -23 0 -35 4 -12 4 -29 -1
-38 -7 -11 -6 -17 0 -17 6 0 8 -9 3 -22 -4 -13 -6 -36 -5 -53 3 -29 3 -40 3
-67 -1 -7 1 -34 2 -61 2 -26 0 -47 -3 -47 -7 0 -3 -55 5 -69 4 -5 2 -12 -4
-16 -6 -4 -7 -12 -1 -24 5 -9 6 -23 1 -31 -4 -7 -5 -23 0 -35 4 -12 4 -29 -1
-38 -7 -11 -6 -17 0 -17 6 0 8 -9 3 -22 -4 -13 -6 -36 -5 -53 3 -29 3 -40 3
-67 -1 -7 1 -34 2 -61 2 -26 0 -47 -3 -47 -7 0 -3 -55 5 -69 4 -5 2 -12 -4
-16 -6 -4 -7 -12 -1 -24 5 -9 6 -23 1 -31 -4 -7 -5 -23 0 -35 4 -11 4 -28 -1
-37 -6 -10 -6 -19 0 -22 6 -4 6 -18 1 -35 -4 -16 -5 -32 -2 -36 3 -3 7 -25 8
-48 5 -127 76 -313 167 -437 49 -67 158 -180 174 -180 6 0 13 -4 15 -8 9 -22
196 -128 243 -138 6 -1 35 -9 65 -17 30 -9 75 -19 100 -24 59 -9 8380 -10
8445 0 28 4 75 15 105 24 30 9 57 17 60 17 3 1 11 5 18 9 6 5 12 6 12 3 0 -11
179 87 216 118 20 17 53 45 72 61 101 86 227 289 258 418 7 31 14 62 22 97 10
49 9 6626 -1 6674 -22 103 -68 229 -87 241 -6 3 -10 15 -10 26 0 10 -5 19 -10
19 -6 0 -9 3 -8 8 10 29 -172 226 -267 289 -100 67 -228 123 -315 138 -19 4
-48 9 -65 12 -29 6 -8392 12 -8398 7z m8266 -4075 c0 -1741 -3 -3171 -7 -3177
-4 -7 -1274 -10 -4086 -10 l-4080 0 -1 31 c0 41 0 6205 0 6274 l1 52 4087 -2
4086 -2 0 -3166z"/>
<path d="M1899 7303 c-5 -36 -2 -2256 3 -2259 6 -4 355 -6 783 -4 l120 0 0
676 c0 416 3 678 9 682 15 9 246 8 246 -1 0 -5 5 -5 12 -1 17 10 308 11 308 1
0 -5 5 -5 12 -1 17 11 308 11 308 0 0 -5 6 -4 13 1 14 10 138 10 155 -1 7 -4
12 -4 12 1 0 10 242 9 257 0 7 -4 15 -2 20 5 4 7 8 214 9 461 l0 447 -1133 0
c-623 0 -1133 -3 -1134 -7z"/>
<path d="M7408 5042 c-36 -2 -58 -8 -59 -15 -1 -7 -2 -310 -3 -674 0 -364 -4
-664 -8 -668 -11 -11 -58 -13 -58 -2 0 6 -5 6 -12 0 -7 -5 -44 -7 -83 -6 -88
4 -83 4 -130 0 -22 -2 -46 1 -52 6 -8 6 -13 6 -13 0 0 -4 -26 -7 -57 -6 -69 4
-68 4 -118 0 -22 -2 -46 1 -52 6 -8 6 -13 6 -13 0 0 -4 -26 -7 -57 -6 -69 4
-68 4 -118 0 -22 -2 -46 1 -52 6 -7 5 -13 6 -13 1 0 -5 -38 -9 -85 -9 -47 0
-85 4 -85 8 0 4 -8 4 -17 -1 -10 -4 -43 -7 -73 -5 -67 4 -55 4 -170 0 l-95 -2
0 -450 0 -450 1133 -3 c622 -1 1132 1 1133 5 5 33 3 2256 -2 2259 -5 3 -108 5
-169 3 -8 0 -62 0 -120 0 -58 0 -112 0 -120 0 -8 -1 -60 0 -115 0 -55 1 -133
1 -174 1 -40 0 -76 1 -80 3 -3 1 -32 1 -63 -1z"/>
</g>
</svg>
